<?xml version="1.0" encoding="UTF-8"?>
<svg version="1.1" xmlns="http://www.w3.org/2000/svg" width="500" height="500">
<path d="M0 0 C0.88429688 0.80824219 1.76859375 1.61648437 2.6796875 2.44921875 C26.01433099 24.56094183 40.12537043 57.32667294 41.27734375 89.3046875 C42.08665776 126.84482739 29.7434855 158.62353221 4 186 C3.4740625 186.59039062 2.948125 187.18078125 2.40625 187.7890625 C-18.88763642 210.71258309 -51.5846257 221.9142426 -82.15625 223.125 C-119.96112016 223.81866734 -157.89514773 211.70409465 -185.95703125 185.9765625 C-208.29219112 164.36740209 -223.69198942 131.85759331 -224.25 100.5625 C-224.00202053 78.74030636 -215.95848881 57.95248888 -201 42 C-188.49530793 30.13183577 -173.68645748 24.45331664 -156.61914062 24.65283203 C-145.99302762 24.98907324 -137.83228165 28.22515785 -128.65576172 33.39453125 C-125.43505508 35.13710474 -123.56445596 36.01602776 -119.8359375 35.91015625 C-116.8969693 34.96693367 -114.5691904 33.79417343 -111.9375 32.1875 C-97.9275447 24.37280719 -83.07691265 22.57628266 -67.5625 26.625 C-49.55397801 32.56552744 -36.08272008 44.28711629 -27.37890625 61.078125 C-18.6920495 79.4854022 -15.78692533 98.40967129 -22.26367188 117.98974609 C-26.0702037 128.38198185 -31.38801081 137.92023494 -39 146 C-39.70253906 146.75539063 -40.40507812 147.51078125 -41.12890625 148.2890625 C-50.28637869 157.30708104 -64.84302981 166.20368528 -78 166.375 C-83.13542745 166.26681875 -86.23760366 165.76239634 -90 162 C-92.90026097 157.22860293 -93.26829553 153.59010046 -92.71484375 148.2109375 C-90.57995037 141.60793392 -84.8952976 138.82330507 -79.25 135.5625 C-66.47470048 128.09959586 -56.06542416 120.5196585 -51.3125 105.8828125 C-48.34185814 94.28905748 -49.7734195 83.0390292 -55.35546875 72.421875 C-61.15958604 63.27222093 -67.71924044 57.12894319 -78.33984375 54.3984375 C-86.63960594 53.02635364 -94.81614158 55.25543549 -101.8046875 59.83984375 C-104.9877259 62.36015227 -107.97353164 65.03183005 -110.92578125 67.81640625 C-114.82306127 71.40259518 -117.44020881 73.10108711 -123 73 C-127.35686817 71.14201034 -130.59428022 68.81332073 -134.125 65.6875 C-142.65272867 58.60416981 -151.61144553 53.32907308 -163 54 C-171.09733593 55.06971495 -176.71283025 60.04865686 -182 66 C-192.06735227 80.2227322 -194.77874322 95.6104054 -192.50390625 112.734375 C-187.59905215 137.67431109 -172.25663083 161.43286753 -151.21069336 175.7578125 C-136.18892336 185.544038 -118.77950639 191.13959981 -101 193 C-99.17275391 193.20109375 -99.17275391 193.20109375 -97.30859375 193.40625 C-72.11221954 195.60811786 -46.94321937 189.94586408 -26.7109375 174.30078125 C-5.31256507 156.13991474 8.23147699 131.73306776 10.7421875 103.48046875 C12.61005167 76.07106836 3.90292535 49.53687939 -13.85546875 28.55078125 C-36.31016992 3.00430092 -68.18229873 -13.09014565 -102 -17 C-103.28777344 -17.16435547 -103.28777344 -17.16435547 -104.6015625 -17.33203125 C-140.57908206 -21.31184536 -179.40694611 -12.31040062 -208.3828125 9.83984375 C-231.57455495 28.98168491 -249.12433918 53.68128842 -252.71875 84.19921875 C-255.53422809 122.24727685 -245.14648394 159.73420299 -220.5390625 189.2109375 C-218.62136142 191.31745838 -216.69128901 193.31051661 -214.6484375 195.2890625 C-214.06610352 195.85423584 -213.48376953 196.41940918 -212.88378906 197.00170898 C-211.74513 198.09310833 -210.59405229 199.17175672 -209.42871094 200.23461914 C-204.89665069 204.53759984 -202.42155578 209.06108817 -201.75 215.3359375 C-202.56312578 221.96799464 -204.34896315 228.28158525 -206.27148438 234.66748047 C-207.42372447 238.55167174 -208.31936106 241.89743871 -208 246 C-204.2005703 244.56630216 -200.70143904 242.83207581 -197.140625 240.8828125 C-196.02429688 240.27566406 -194.90796875 239.66851562 -193.7578125 239.04296875 C-191.43458815 237.77269798 -189.11166726 236.50187203 -186.7890625 235.23046875 C-168.07783943 225.0575854 -168.07783943 225.0575854 -160 226 C-155.84315923 227.60605211 -153.77841175 230.07691971 -151.73046875 234.0390625 C-150.39075133 237.63552317 -150.51233107 240.15960719 -151 244 C-160.15893839 260.32307287 -186.85433099 269.80554875 -203.93115234 274.86914062 C-234.58910049 283.47999561 -234.58910049 283.47999561 -243 279.625 C-245.30000816 277.75624337 -245.88685028 276.80672947 -246.29541016 273.89379883 C-246.79099028 262.41081989 -242.83550356 251.81428732 -239.54882812 240.95874023 C-238.75419069 238.31399821 -237.98192645 235.66343348 -237.2109375 233.01171875 C-236.96000336 232.21054123 -236.70906921 231.40936371 -236.45053101 230.58390808 C-234.95529672 225.41679846 -234.91014774 222.15246837 -237 217 C-238.77192273 214.56347974 -238.77192273 214.56347974 -241 212.4375 C-272.4863729 178.89220957 -284.37650184 134.9993585 -283 90 C-282.69960402 84.60363928 -281.95048516 79.31947658 -281 74 C-280.87109375 73.25733887 -280.7421875 72.51467773 -280.609375 71.74951172 C-276.38808898 47.95103461 -267.08937477 28.7975387 -252 10 C-251.34 9.01 -250.68 8.02 -250 7 C-249.34 7 -248.68 7 -248 7 C-247.7525 6.38125 -247.505 5.7625 -247.25 5.125 C-245.79371361 2.64931313 -244.62187494 2.04874998 -242 1 C-242 0.34 -242 -0.32 -242 -1 C-214.25039285 -27.27717902 -176.89918702 -43.61381834 -139 -47 C-137.26556641 -47.18175781 -137.26556641 -47.18175781 -135.49609375 -47.3671875 C-85.8418136 -51.7594755 -36.08760698 -34.10787932 0 0 Z " fill="#0DC0DE" transform="translate(368,140)"/>
<path d="M0 0 C0.33 0 0.66 0 1 0 C1.22786458 2.05078125 1.45572917 4.1015625 1.68359375 6.15234375 C1.81886614 8.01140229 1.81886614 8.01140229 3 9 C3.22049021 13.11149389 3.185786 17.22659857 3.18530273 21.34350586 C3.18745839 23.39784439 3.20551745 25.45161824 3.22460938 27.50585938 C3.24701421 42.76355004 3.24701421 42.76355004 1 49 C0.01 49.495 0.01 49.495 -1 50 C-0.84402344 48.70449219 -0.68804687 47.40898437 -0.52734375 46.07421875 C1.12422396 31.38681454 1.02817704 17.40399388 -0.90307617 2.75878906 C-0.93506104 2.17838867 -0.9670459 1.59798828 -1 1 C-0.67 0.67 -0.34 0.34 0 0 Z " fill="#32B5CF" transform="translate(378,210)"/>
<path d="M0 0 C1.4540625 0.0309375 1.4540625 0.0309375 2.9375 0.0625 C0.5735716 8.19210743 -2.44961402 16.42930083 -9.0625 22.0625 C-8.55537967 18.34361761 -7.94641785 15.32795761 -6.0625 12.0625 C-5.4025 12.0625 -4.7425 12.0625 -4.0625 12.0625 C-4.07410156 11.28003906 -4.08570313 10.49757813 -4.09765625 9.69140625 C-4.10667969 8.67949219 -4.11570312 7.66757812 -4.125 6.625 C-4.13660156 5.61566406 -4.14820313 4.60632813 -4.16015625 3.56640625 C-4.01596662 -0.13061575 -3.76355726 0.07680729 0 0 Z " fill="#18BDDB" transform="translate(342.0625,257.9375)"/>
<path d="M0 0 C9.53397771 1.34453532 19.5769178 8.42601375 25.53125 15.9296875 C26.7309305 17.58924553 27.87200129 19.29091104 29 21 C27.68 21.33 26.36 21.66 25 22 C23.10786631 19.61426621 21.97608217 17.92824652 21 15 C20.01 14.67 19.02 14.34 18 14 C18 13.01 18 12.02 18 11 C16.68 11 15.36 11 14 11 C14 10.34 14 9.68 14 9 C12.68 9.33 11.36 9.66 10 10 C10 8.35 10 6.7 10 5 C6.7 4.01 3.4 3.02 0 2 C0 1.34 0 0.68 0 0 Z " fill="#25B9D0" transform="translate(304,169)"/>
<path d="M0 0 C1.45296638 5.1178811 0.17113123 9.20369869 -2 14 C-4.5625 15.875 -4.5625 15.875 -7 17 C-8.32793606 19.06700655 -8.32793606 19.06700655 -9 21 C-9.66 21 -10.32 21 -11 21 C-9.53171057 15.82064939 -7.18508737 11.65626588 -4.375 7.125 C-3.95476562 6.43664062 -3.53453125 5.74828125 -3.1015625 5.0390625 C-2.07307528 3.35608342 -1.037279 1.67757468 0 0 Z " fill="#1EBAD9" transform="translate(108,160)"/>
<path d="M0 0 C0.33 0 0.66 0 1 0 C1.12375 1.134375 1.2475 2.26875 1.375 3.4375 C1.58125 4.613125 1.7875 5.78875 2 7 C2.66 7.33 3.32 7.66 4 8 C4.33 9.98 4.66 11.96 5 14 C10.28 14 15.56 14 21 14 C21 13.34 21 12.68 21 12 C23.475 12.495 23.475 12.495 26 13 C20.23480589 16.45911647 12.58260578 16.71496467 6 16 C1.45945946 13.91891892 1.45945946 13.91891892 0 11 C-0.07033769 9.12620395 -0.0843022 7.24998898 -0.0625 5.375 C-0.05347656 4.37210937 -0.04445313 3.36921875 -0.03515625 2.3359375 C-0.02355469 1.56507813 -0.01195313 0.79421875 0 0 Z " fill="#2BBAD2" transform="translate(122,405)"/>
<path d="M0 0 C7.8978389 -0.2632613 7.8978389 -0.2632613 12 2 C14.82098771 2.20149912 16.46130539 2.26934731 19 1 C19.66 1.33 20.32 1.66 21 2 C20.34 3.98 19.68 5.96 19 8 C19.639375 8.28875 20.27875 8.5775 20.9375 8.875 C23 10 23 10 24 12 C20.60558418 10.38361151 17.45594708 8.46011272 14.25 6.5 C9.47413742 3.6848163 5.44466658 1.94234614 0 1 C0 0.67 0 0.34 0 0 Z " fill="#24BAD2" transform="translate(211,193)"/>
<path d="M0 0 C3.54206632 3.28025589 5.40762311 7.14052543 7.625 11.375 C8.03234375 12.13039062 8.4396875 12.88578125 8.859375 13.6640625 C10.83911268 17.41376433 12.50601219 20.72445037 13 25 C11.68 25 10.36 25 9 25 C6.88838269 15.58997722 6.88838269 15.58997722 6 11 C4.68 10.67 3.36 10.34 2 10 C2 8.02 2 6.04 2 4 C1.34 4 0.68 4 0 4 C0 2.68 0 1.36 0 0 Z " fill="#2AB5D0" transform="translate(387,164)"/>
<path d="M0 0 C0.66 0.33 1.32 0.66 2 1 C0.68 8.26 -0.64 15.52 -2 23 C-2.66 23 -3.32 23 -4 23 C-3.505 14.09 -3.505 14.09 -3 5 C-3.66 4.67 -4.32 4.34 -5 4 C-4.67 3.34 -4.34 2.68 -4 2 C-2.68 2 -1.36 2 0 2 C0 1.34 0 0.68 0 0 Z " fill="#21B9D4" transform="translate(117,203)"/>
<path d="M0 0 C0.66 0 1.32 0 2 0 C1.67 3.96 1.34 7.92 1 12 C2.65 11.34 4.3 10.68 6 10 C7.99620166 9.32204472 9.99538701 8.65266469 12 8 C6 14 6 14 4.15234375 14.09765625 C2.1015625 14.06510417 0.05078125 14.03255208 -2 14 C-2.625 10.625 -2.625 10.625 -3 7 C-2.34 6.34 -1.68 5.68 -1 5 C-0.35232207 2.42938689 -0.35232207 2.42938689 0 0 Z " fill="#29B8D2" transform="translate(159,374)"/>
<path d="M0 0 C0.33 1.32 0.66 2.64 1 4 C0.01 4.66 -0.98 5.32 -2 6 C-2.33 6.99 -2.66 7.98 -3 9 C-3.99 9 -4.98 9 -6 9 C-6 9.99 -6 10.98 -6 12 C-6.66 12 -7.32 12 -8 12 C-9.56272189 16.39253773 -9.56272189 16.39253773 -10 21 C-10.66 21.66 -11.32 22.32 -12 23 C-12.66 22.67 -13.32 22.34 -14 22 C-11.98282895 13.48305556 -5.62873942 6.48157872 0 0 Z " fill="#2CB7D1" transform="translate(167,182)"/>
<path d="M0 0 C0.66 0.33 1.32 0.66 2 1 C-0.10016623 2.17441535 -2.20458755 3.33964012 -4.3125 4.5 C-4.90740234 4.83386719 -5.50230469 5.16773438 -6.11523438 5.51171875 C-8.95828844 7.06825114 -10.70660988 8 -14 8 C-13.25 3.25 -13.25 3.25 -11 1 C-8.90625 0.83984375 -8.90625 0.83984375 -6.5 0.9375 C-3.11792042 1.1199046 -3.11792042 1.1199046 0 0 Z " fill="#22BBD5" transform="translate(344,345)"/>
<path d="M0 0 C0.99 0.33 1.98 0.66 3 1 C3 1.66 3 2.32 3 3 C4.65 2.34 6.3 1.68 8 1 C8.75612577 6.23471686 9.2063366 10.77254141 8 16 C5.9105012 12.8657518 4.43554114 9.73890554 2.875 6.3125 C2.33617187 5.13300781 1.79734375 3.95351562 1.2421875 2.73828125 C0.83226562 1.83464844 0.42234375 0.93101562 0 0 Z " fill="#23BBD7" transform="translate(310,207)"/>
<path d="M0 0 C3.63 0.66 7.26 1.32 11 2 C7.45960866 4.9156164 3.8373228 7.50127818 0 10 C-0.33 9.01 -0.66 8.02 -1 7 C-0.01 7 0.98 7 2 7 C2 6.01 2 5.02 2 4 C1.34 4 0.68 4 0 4 C0 2.68 0 1.36 0 0 Z " fill="#19BCDB" transform="translate(260,194)"/>
<path d="M0 0 C1.32 0.66 2.64 1.32 4 2 C2.56760415 3.79574993 1.1288996 5.58646907 -0.3125 7.375 C-1.51326172 8.87160156 -1.51326172 8.87160156 -2.73828125 10.3984375 C-5 13 -5 13 -8 15 C-8 13.35 -8 11.7 -8 10 C-6.68 9.67 -5.36 9.34 -4 9 C-4 8.01 -4 7.02 -4 6 C-3.34 5.67 -2.68 5.34 -2 5 C-1.27840576 3.35636866 -0.60648579 1.68949614 0 0 Z " fill="#23BCD8" transform="translate(381,309)"/>
<path d="M0 0 C-1.76997474 0.81436868 -3.54101152 1.6264294 -5.3125 2.4375 C-6.29863281 2.88996094 -7.28476562 3.34242188 -8.30078125 3.80859375 C-12.39739961 5.61679722 -15.54226624 6.18444509 -20 6.25 C-21.5778125 6.28867187 -21.5778125 6.28867187 -23.1875 6.328125 C-26 6 -26 6 -27.875 4.484375 C-28.24625 3.99453125 -28.6175 3.5046875 -29 3 C-28.360625 3.165 -27.72125 3.33 -27.0625 3.5 C-21.26866466 4.4459323 -15.2760575 4.96778234 -10 2 C-9.67 1.34 -9.34 0.68 -9 0 C-5.44307323 -0.85056945 -3.50729422 -1.16909807 0 0 Z " fill="#2CB8D2" transform="translate(310,300)"/>
<path d="M0 0 C1.65 0 3.3 0 5 0 C6.17353189 3.52059568 6.20146402 6.306493 6 10 C5.34 10.66 4.68 11.32 4 12 C3.32645501 10.56570999 2.66140299 9.12742943 2 7.6875 C1.62875 6.88699219 1.2575 6.08648437 0.875 5.26171875 C0 3 0 3 0 0 Z " fill="#1CBDD8" transform="translate(95,297)"/>
<path d="M0 0 C2.4375 0.375 2.4375 0.375 5 1 C5.33 1.66 5.66 2.32 6 3 C7.32 3 8.64 3 10 3 C10.71614583 4.69270833 11.43229167 6.38541667 12.1484375 8.078125 C13.03806401 10.08590592 14.00418825 12.04301344 15 14 C12.66317451 12.00396156 10.33030636 10.0036279 8 8 C7.25878906 7.36578125 6.51757812 6.7315625 5.75390625 6.078125 C5.03074219 5.45421875 4.30757813 4.8303125 3.5625 4.1875 C2.88316406 3.60355469 2.20382812 3.01960937 1.50390625 2.41796875 C1.00761719 1.95003906 0.51132812 1.48210937 0 1 C0 0.67 0 0.34 0 0 Z " fill="#23BBD5" transform="translate(337,151)"/>
<path d="M0 0 C1.65 0.33 3.3 0.66 5 1 C1.69984002 5.13937592 -1.17324411 8.58662205 -6 11 C-6.33 10.01 -6.66 9.02 -7 8 C-5.68 8 -4.36 8 -3 8 C-3.33 7.01 -3.66 6.02 -4 5 C-2.0625 2.3125 -2.0625 2.3125 0 0 Z " fill="#21BAD7" transform="translate(367,324)"/>
<path d="M0 0 C2.23793576 3.35690365 3.65050338 6.8339284 5.125 10.5625 C5.40214844 11.24763672 5.67929688 11.93277344 5.96484375 12.63867188 C8 17.7466133 8 17.7466133 8 20 C7.34 20 6.68 20 6 20 C6 19.34 6 18.68 6 18 C5.34 18 4.68 18 4 18 C1.03343051 12.50312124 -0.4036063 6.25589769 0 0 Z " fill="#24BBD5" transform="translate(121,283)"/>
<path d="M0 0 C1.32 0.66 2.64 1.32 4 2 C-1.0022779 11.59453303 -1.0022779 11.59453303 -5 15 C-4.49287967 11.28111761 -3.88391785 8.26545761 -2 5 C-1.34 5 -0.68 5 0 5 C0 3.35 0 1.7 0 0 Z " fill="#1FBAD3" transform="translate(338,265)"/>
<path d="M0 0 C6.93 0 13.86 0 21 0 C21 0.33 21 0.66 21 1 C18.1875 1.3125 15.375 1.625 12.5625 1.9375 C11.3878418 2.06801758 11.3878418 2.06801758 10.18945312 2.20117188 C4.79296875 2.80078125 -0.60351562 3.40039062 -6 4 C-5.34 3.34 -4.68 2.68 -4 2 C-2.68 2 -1.36 2 0 2 C0 1.34 0 0.68 0 0 Z " fill="#2DB9D4" transform="translate(218,121)"/>
<path d="M0 0 C0.53625 0.226875 1.0725 0.45375 1.625 0.6875 C-1.75668431 4.36756822 -4.80021756 6.6660845 -9.375 8.6875 C-9.375 8.0275 -9.375 7.3675 -9.375 6.6875 C-8.715 6.6875 -8.055 6.6875 -7.375 6.6875 C-7.705 5.3675 -8.035 4.0475 -8.375 2.6875 C-2.95961538 -0.38942308 -2.95961538 -0.38942308 0 0 Z " fill="#1EBBD3" transform="translate(320.375,290.3125)"/>
<path d="M0 0 C0.33 0.66 0.66 1.32 1 2 C0.33333333 3.33333333 -0.33333333 4.66666667 -1 6 C-0.67 6.66 -0.34 7.32 0 8 C-0.99 8 -1.98 8 -3 8 C-3.33 8.99 -3.66 9.98 -4 11 C-5.65 11.33 -7.3 11.66 -9 12 C-6.53974941 7.48954059 -3.39717963 3.81495577 0 0 Z " fill="#21B8D2" transform="translate(118,148)"/>
<path d="M0 0 C2.77905075 3.31716933 3.5247472 5.54113745 3.359375 9.96484375 C2.76829157 13.3121749 1.17121957 15.45657136 -1 18 C-1.99 18.33 -2.98 18.66 -4 19 C-4 18.34 -4 17.68 -4 17 C-3.34 16.67 -2.68 16.34 -2 16 C0.25546594 12.62468733 0.21164153 9.73551049 0.125 5.75 C0.10695312 4.67234375 0.08890625 3.5946875 0.0703125 2.484375 C0.04710937 1.66453125 0.02390625 0.8446875 0 0 Z " fill="#31BBD0" transform="translate(214,372)"/>
<path d="M0 0 C2.04565773 3.06848659 2.78134287 5.32993651 3.6875 8.875 C3.95949219 9.90367187 4.23148437 10.93234375 4.51171875 11.9921875 C5.00575258 15.0354359 4.81054977 17.05155721 4 20 C1.7634629 16.64519435 1.44091134 14.51938805 0.875 10.5625 C0.70742188 9.42941406 0.53984375 8.29632813 0.3671875 7.12890625 C0 4 0 4 0 0 Z " fill="#26B9D2" transform="translate(402,195)"/>
<path d="M0 0 C0.33 0.99 0.66 1.98 1 3 C-1.64738916 4.4606285 -2.89448334 5 -6 5 C-6 5.66 -6 6.32 -6 7 C-8.31 8.32 -10.62 9.64 -13 11 C-13 10.01 -13 9.02 -13 8 C-10.85224966 6.45704199 -8.78165246 5.1240944 -6.5 3.8125 C-5.87996094 3.44447266 -5.25992187 3.07644531 -4.62109375 2.69726562 C-3.0865212 1.7883265 -1.5439744 0.8928753 0 0 Z " fill="#27B9CF" transform="translate(292,274)"/>
<path d="M0 0 C0.66 0.33 1.32 0.66 2 1 C1.2890625 2.953125 1.2890625 2.953125 0 5 C-2.1640625 5.609375 -2.1640625 5.609375 -4.625 5.75 C-5.44226563 5.80671875 -6.25953125 5.8634375 -7.1015625 5.921875 C-7.72804687 5.94765625 -8.35453125 5.9734375 -9 6 C-9 6.66 -9 7.32 -9 8 C-10.32 7.67 -11.64 7.34 -13 7 C-11.39805929 6.01719585 -9.79336258 5.03888283 -8.1875 4.0625 C-7.29417969 3.51722656 -6.40085938 2.97195312 -5.48046875 2.41015625 C-3 1 -3 1 0 0 Z " fill="#22B9D1" transform="translate(262,169)"/>
<path d="M0 0 C0.66 0.33 1.32 0.66 2 1 C1.01 2.485 1.01 2.485 0 4 C-1.32 4 -2.64 4 -4 4 C-4.33 4.99 -4.66 5.98 -5 7 C-5.66 7 -6.32 7 -7 7 C-7.33 7.99 -7.66 8.98 -8 10 C-9.98 10.33 -11.96 10.66 -14 11 C-9.85989729 6.45924219 -5.17609824 3.28157862 0 0 Z " fill="#29B7D2" transform="translate(182,171)"/>
<path d="M0 0 C2.7106722 0.42087527 5.37526959 0.89821806 8.0625 1.4375 C8.82111328 1.58509766 9.57972656 1.73269531 10.36132812 1.88476562 C12.24188598 2.25141527 14.12107695 2.62506271 16 3 C16 3.33 16 3.66 16 4 C10.33333333 4 4.66666667 4 -1 4 C-1 1 -1 1 0 0 Z " fill="#20B7D5" transform="translate(244,329)"/>
<path d="M0 0 C0.99 0.33 1.98 0.66 3 1 C3 1.99 3 2.98 3 4 C3.99 4 4.98 4 6 4 C6 5.65 6 7.3 6 9 C6.66 9 7.32 9 8 9 C9.06775224 10.96466413 10.06553465 12.96855359 11 15 C10.67 15.66 10.34 16.32 10 17 C8.51678092 14.73172355 7.03832301 12.46058097 5.5625 10.1875 C5.14162109 9.54490234 4.72074219 8.90230469 4.28710938 8.24023438 C2.52277296 5.51609896 1.0308261 3.09247829 0 0 Z " fill="#27B9D1" transform="translate(105,320)"/>
<path d="M0 0 C0.99 0.33 1.98 0.66 3 1 C1.40907948 5.13639336 -1.60474918 8.23213248 -5 11 C-5.66 11 -6.32 11 -7 11 C-6.67 9.35 -6.34 7.7 -6 6 C-5.34 6 -4.68 6 -4 6 C-3.67 5.34 -3.34 4.68 -3 4 C-2.01 4 -1.02 4 0 4 C0 2.68 0 1.36 0 0 Z " fill="#26BACD" transform="translate(329,280)"/>
<path d="M0 0 C0.33 0 0.66 0 1 0 C1.87890625 6.15234375 1.87890625 6.15234375 2 8 C1.67 8.33 1.34 8.66 1 9 C0.47071924 11.31282351 0.03666285 13.63721913 -0.40234375 15.96875 C-0.59957031 16.6390625 -0.79679687 17.309375 -1 18 C-1.66 18.33 -2.32 18.66 -3 19 C-2.48446121 12.50149789 -1.53332291 6.33773468 0 0 Z " fill="#28BAD5" transform="translate(90,199)"/>
<path d="M0 0 C0.33 0 0.66 0 1 0 C1.60992886 5.03191313 -0.45643143 7.90310712 -3 12 C-3.6802367 13.32646156 -4.35492261 14.65608877 -5 16 C-5.66 16 -6.32 16 -7 16 C-7 16.66 -7 17.32 -7 18 C-7.66 17.67 -8.32 17.34 -9 17 C-6.03 11.39 -3.06 5.78 0 0 Z " fill="#2DB4C9" transform="translate(372,273)"/>
<path d="M0 0 C0.66 0 1.32 0 2 0 C0.35433477 5.68502535 -2.29032784 10.76681636 -5 16 C-7 12.25 -7 12.25 -7 10 C-6.01 10 -5.02 10 -4 10 C-3.87625 9.030625 -3.7525 8.06125 -3.625 7.0625 C-3.41875 6.051875 -3.2125 5.04125 -3 4 C-2.34 3.67 -1.68 3.34 -1 3 C-0.67 2.01 -0.34 1.02 0 0 Z " fill="#27B8D1" transform="translate(127,182)"/>
<path d="M0 0 C-0.99 0.33 -1.98 0.66 -3 1 C-4.20882096 3.00016466 -4.20882096 3.00016466 -5 5 C-8 5 -11 5 -14 5 C-10.63156097 2.05261585 -4.40469071 -2.20234535 0 0 Z " fill="#22B9D0" transform="translate(187,104)"/>
<path d="M0 0 C1.4391134 0.28359887 2.87625518 0.57721399 4.3125 0.875 C5.11300781 1.03742188 5.91351563 1.19984375 6.73828125 1.3671875 C9 2 9 2 12 4 C10.68 4 9.36 4 8 4 C8 4.99 8 5.98 8 7 C6.68 7 5.36 7 4 7 C3.896875 6.401875 3.79375 5.80375 3.6875 5.1875 C2.90576469 2.70016036 1.8735926 1.75303972 0 0 Z " fill="#1FBAD4" transform="translate(294,99)"/>
<path d="M0 0 C1.32 0.66 2.64 1.32 4 2 C2.35 4.64 0.7 7.28 -1 10 C-2 8 -3 6 -4 4 C-3.34 4 -2.68 4 -2 4 C-1.34 2.68 -0.68 1.36 0 0 Z " fill="#21BCD7" transform="translate(388,298)"/>
<path d="M0 0 C1.2065625 0.0309375 1.2065625 0.0309375 2.4375 0.0625 C-0.56859722 2.06656482 -3.15492695 3.09326258 -6.5625 4.25 C-7.614375 4.61480469 -8.66625 4.97960937 -9.75 5.35546875 C-12.5625 6.0625 -12.5625 6.0625 -15.5625 5.0625 C-13.9125 4.7325 -12.2625 4.4025 -10.5625 4.0625 C-10.2325 3.0725 -9.9025 2.0825 -9.5625 1.0625 C-8.1084375 1.0934375 -8.1084375 1.0934375 -6.625 1.125 C-3.22707532 1.0556546 -3.2165483 0.0784524 0 0 Z " fill="#2EBAD6" transform="translate(175.5625,408.9375)"/>
<path d="M0 0 C0 3.80845564 -0.97798569 5.79266696 -3 9 C-5.6875 9.875 -5.6875 9.875 -8 10 C-8 9.01 -8 8.02 -8 7 C-7.01 6.67 -6.02 6.34 -5 6 C-5 5.34 -5 4.68 -5 4 C-3.37373596 2.61767557 -1.7074998 1.28062485 0 0 Z " fill="#1DC0D8" transform="translate(131,135)"/>
<path d="M0 0 C0.33 0 0.66 0 1 0 C1.22786458 2.05078125 1.45572917 4.1015625 1.68359375 6.15234375 C1.81886614 8.01140229 1.81886614 8.01140229 3 9 C3.07258946 11.18639453 3.08373783 13.37500389 3.0625 15.5625 C3.05347656 16.76003906 3.04445313 17.95757812 3.03515625 19.19140625 C3.02355469 20.11824219 3.01195312 21.04507813 3 22 C2.67 22 2.34 22 2 22 C1.92652344 20.91332031 1.92652344 20.91332031 1.8515625 19.8046875 C1.37730338 13.61985042 1.37730338 13.61985042 -0.125 7.625 C-1.12154575 4.63536274 -0.87823223 2.9859896 0 0 Z " fill="#24B9D2" transform="translate(378,210)"/>
<path d="M0 0 C-2.85276137 2.93200474 -5.65079784 5.64315404 -9 8 C-9.25 5.6875 -9.25 5.6875 -9 3 C-6.19926731 -0.00819437 -4.01012625 -0.33417719 0 0 Z " fill="#21B9D1" transform="translate(155,153)"/>
<path d="M0 0 C1.32 1.65 2.64 3.3 4 5 C3.34 6.32 2.68 7.64 2 9 C1.01 9 0.02 9 -1 9 C-2.0625 7.1875 -2.0625 7.1875 -3 5 C-2.67 4.01 -2.34 3.02 -2 2 C-1.34 2.66 -0.68 3.32 0 4 C0 2.68 0 1.36 0 0 Z " fill="#1CBCDB" transform="translate(133,310)"/>
<path d="M0 0 C6.64387464 1.62962963 6.64387464 1.62962963 8.5625 3.625 C10.05360108 5.34837821 10.05360108 5.34837821 13.1875 5.1875 C14.115625 5.125625 15.04375 5.06375 16 5 C13 7 13 7 9.6875 6.9375 C5.1408283 5.78156652 3.32236576 4.24133244 0 1 C0 0.67 0 0.34 0 0 Z " fill="#2EB8CE" transform="translate(236,206)"/>
<path d="M0 0 C0.66 0 1.32 0 2 0 C2 0.66 2 1.32 2 2 C2.66 2 3.32 2 4 2 C4 3.65 4 5.3 4 7 C4.66 7 5.32 7 6 7 C6 9.97 6 12.94 6 16 C4.2850899 12.5701798 3.05869074 9.37998493 1.875 5.75 C1.52179688 4.67234375 1.16859375 3.5946875 0.8046875 2.484375 C0.53914063 1.66453125 0.27359375 0.8446875 0 0 Z " fill="#2EB8D0" transform="translate(371,195)"/>
<path d="M0 0 C5.6143991 1.56448671 10.86810338 3.16395187 16 6 C12.71023192 7.09658936 11.28696233 6.79953138 8 6 C8 5.34 8 4.68 8 4 C6.68 4 5.36 4 4 4 C4 3.34 4 2.68 4 2 C2.68 2 1.36 2 0 2 C0 1.34 0 0.68 0 0 Z " fill="#2BB5CB" transform="translate(307,103)"/>
<path d="M0 0 C1.12894876 0.93274109 2.25300876 1.87140122 3.375 2.8125 C4.00148438 3.33457031 4.62796875 3.85664063 5.2734375 4.39453125 C7 6 7 6 9 9 C7.68 9 6.36 9 5 9 C5 8.34 5 7.68 5 7 C4.01 6.67 3.02 6.34 2 6 C0.8125 2.9375 0.8125 2.9375 0 0 Z " fill="#24B7CE" transform="translate(368,141)"/>
<path d="M0 0 C2.33944736 0.28730055 4.6739143 0.61936779 7 1 C-0.5 6 -0.5 6 -4 6 C-4 5.01 -4 4.02 -4 3 C-3.01 2.34 -2.02 1.68 -1 1 C-0.67 0.67 -0.34 0.34 0 0 Z " fill="#26B9D3" transform="translate(185,130)"/>
<path d="M0 0 C2 1 2 1 3 3 C2.01 3.495 2.01 3.495 1 4 C1.515625 4.78375 2.03125 5.5675 2.5625 6.375 C3.036875 7.24125 3.51125 8.1075 4 9 C3.67 9.66 3.34 10.32 3 11 C1.99406757 9.8803014 0.9954151 8.7540588 0 7.625 C-0.556875 6.99851562 -1.11375 6.37203125 -1.6875 5.7265625 C-3 4 -3 4 -3 2 C-2.01 2 -1.02 2 0 2 C0 1.34 0 0.68 0 0 Z " fill="#26B8D2" transform="translate(172,307)"/>
<path d="M0 0 C3.93345152 1.31115051 4.32374076 2.84212778 6.25 6.4375 C6.79140625 7.42621094 7.3328125 8.41492188 7.890625 9.43359375 C8.25671875 10.28050781 8.6228125 11.12742187 9 12 C8.67 12.66 8.34 13.32 8 14 C6.66101601 12.04532248 5.32870953 10.0866421 4 8.125 C3.2575 7.03445313 2.515 5.94390625 1.75 4.8203125 C0 2 0 2 0 0 Z " fill="#30B6CA" transform="translate(160,295)"/>
<path d="M0 0 C3.08089673 2.77280706 4.68775452 5.06326356 6 9 C4.02 8.34 2.04 7.68 0 7 C-1.125 2.25 -1.125 2.25 0 0 Z " fill="#23B9CD" transform="translate(187,285)"/>
<path d="M0 0 C0.33 0 0.66 0 1 0 C0.67 3.63 0.34 7.26 0 11 C-0.99 10.67 -1.98 10.34 -3 10 C-2.69201674 8.51988629 -2.378482 7.04092675 -2.0625 5.5625 C-1.88847656 4.73878906 -1.71445312 3.91507813 -1.53515625 3.06640625 C-1 1 -1 1 0 0 Z " fill="#23B8D8" transform="translate(407,250)"/>
<path d="M0 0 C4.0042343 3.49087093 5.62671065 5.64951939 6 11 C2.40611459 8.44950068 1.23541911 7.30788396 0.4375 2.875 C0.293125 1.92625 0.14875 0.9775 0 0 Z " fill="#1FBAD5" transform="translate(333,191)"/>
<path d="M0 0 C-3.88309282 3.64775386 -6.71201818 4.58525633 -12 5 C-3.89473684 -1.94736842 -3.89473684 -1.94736842 0 0 Z " fill="#2CB8D1" transform="translate(199,368)"/>
<path d="M0 0 C3.2542015 2.83430453 4.5206753 4.68607774 5 9 C4.01 9.33 3.02 9.66 2 10 C1.34 6.7 0.68 3.4 0 0 Z " fill="#29BBD1" transform="translate(160,343)"/>
<path d="M0 0 C0.33 0 0.66 0 1 0 C1.05422947 1.4370809 1.09289723 2.87475462 1.125 4.3125 C1.14820313 5.11300781 1.17140625 5.91351563 1.1953125 6.73828125 C1 9 1 9 -1 12 C-1.66 12 -2.32 12 -3 12 C-2.01 8.04 -1.02 4.08 0 0 Z " fill="#2BB6D1" transform="translate(376,260)"/>
<path d="M0 0 C1.65 0.33 3.3 0.66 5 1 C1.87511433 3.52394612 -1.31314387 5.39701907 -5 7 C-5.66 6.67 -6.32 6.34 -7 6 C-2.25 3 -2.25 3 0 3 C0 2.01 0 1.02 0 0 Z " fill="#34B7CD" transform="translate(192,399)"/>
<path d="M0 0 C0.66 0 1.32 0 2 0 C2.66 2.31 3.32 4.62 4 7 C2.68 7 1.36 7 0 7 C-0.93423645 3.98968256 -1.04449911 3.13349732 0 0 Z " fill="#1EBAD3" transform="translate(396,182)"/>
<path d="M0 0 C-1.28524261 0.86380259 -2.57842419 1.71580369 -3.875 2.5625 C-4.59429687 3.03816406 -5.31359375 3.51382813 -6.0546875 4.00390625 C-6.69664062 4.33261719 -7.33859375 4.66132813 -8 5 C-8.66 4.67 -9.32 4.34 -10 4 C-9.25 2.0625 -9.25 2.0625 -8 0 C-4.99756227 -1.30105635 -3.07011437 -0.84139118 0 0 Z " fill="#2CB8D0" transform="translate(172,142)"/>
<path d="M0 0 C3.36591866 1.44253657 5.51047079 3.33264727 8 6 C5.36 5.34 2.72 4.68 0 4 C0 2.68 0 1.36 0 0 Z " fill="#29B6D2" transform="translate(354,129)"/>
<path d="M0 0 C1.32 0 2.64 0 4 0 C4 0.99 4 1.98 4 3 C4.9590625 3.1546875 4.9590625 3.1546875 5.9375 3.3125 C6.618125 3.539375 7.29875 3.76625 8 4 C8.33 4.99 8.66 5.98 9 7 C5.18315774 5.44499019 2.80804268 2.96404505 0 0 Z " fill="#29B8D0" transform="translate(187,329)"/>
<path d="M0 0 C0.33 0 0.66 0 1 0 C1.33 2.64 1.66 5.28 2 8 C1.01 7.01 0.02 6.02 -1 5 C-1.66 5.66 -2.32 6.32 -3 7 C-3 5.68 -3 4.36 -3 3 C-2.01 2.67 -1.02 2.34 0 2 C0 1.34 0 0.68 0 0 Z " fill="#1ABBD8" transform="translate(116,264)"/>
<path d="M0 0 C0.66 1.32 1.32 2.64 2 4 C1.01 4.33 0.02 4.66 -1 5 C-1 6.32 -1 7.64 -1 9 C-1.99 9.33 -2.98 9.66 -4 10 C-2.8905928 6.51329166 -1.73662334 3.22515763 0 0 Z " fill="#2BB6CD" transform="translate(316,248)"/>
<path d="M0 0 C1.98 1.65 3.96 3.3 6 5 C4.02 5.99 4.02 5.99 2 7 C0.5393715 4.35261084 0 3.10551666 0 0 Z " fill="#20B9CF" transform="translate(362,135)"/>
<path d="M0 0 C0.66 0 1.32 0 2 0 C1.67 1.32 1.34 2.64 1 4 C-1.31 4.66 -3.62 5.32 -6 6 C-4 4 -2 2 0 0 Z " fill="#28B6D2" transform="translate(138,129)"/>
<path d="M0 0 C0.33 0.66 0.66 1.32 1 2 C0.01 2.495 0.01 2.495 -1 3 C-2.13350534 5.01669827 -2.13350534 5.01669827 -3 7 C-6 7 -6 7 -8 6 C-5.36 4.02 -2.72 2.04 0 0 Z " fill="#27B6CF" transform="translate(148,122)"/>
<path d="M0 0 C3.63 0 7.26 0 11 0 C7.09567131 1.95216435 4.27786748 2.50639991 0 3 C0 2.01 0 1.02 0 0 Z " fill="#2BB9D0" transform="translate(200,125)"/>
<path d="M0 0 C5.53846154 0.61538462 5.53846154 0.61538462 7.875 2.5625 C8.431875 3.2740625 8.431875 3.2740625 9 4 C7.6078125 3.7215625 7.6078125 3.7215625 6.1875 3.4375 C2.98656229 2.75876119 2.98656229 2.75876119 0 4 C-0.33 3.34 -0.66 2.68 -1 2 C-0.67 1.34 -0.34 0.68 0 0 Z " fill="#1DB9D7" transform="translate(343,123)"/>
<path d="M0 0 C2.475 0.495 2.475 0.495 5 1 C5 1.66 5 2.32 5 3 C5.66 3.33 6.32 3.66 7 4 C6.01 5.485 6.01 5.485 5 7 C3.35 4.69 1.7 2.38 0 0 Z " fill="#27BBD3" transform="translate(127,352)"/>
<path d="M0 0 C0.66 0 1.32 0 2 0 C0.515 5.445 0.515 5.445 -1 11 C-1.33 11 -1.66 11 -2 11 C-2.28571429 3.57142857 -2.28571429 3.57142857 0 0 Z " fill="#2CB8D1" transform="translate(177,216)"/>
<path d="M0 0 C0.66 0 1.32 0 2 0 C2.6875 1.8125 2.6875 1.8125 3 4 C1.5625 5.75 1.5625 5.75 0 7 C-0.66 6.67 -1.32 6.34 -2 6 C-1.34 4.02 -0.68 2.04 0 0 Z " fill="#1EB9D4" transform="translate(155,198)"/>
<path d="M0 0 C0.6875 1.8125 0.6875 1.8125 1 4 C-0.375 5.5625 -0.375 5.5625 -2 7 C-2.33 7.99 -2.66 8.98 -3 10 C-3.66 10 -4.32 10 -5 10 C-3.66511872 6.40608886 -2.03977277 3.24509304 0 0 Z " fill="#2FB5D6" transform="translate(108,160)"/>
<path d="M0 0 C-0.75 1.9375 -0.75 1.9375 -2 4 C-4 4.8125 -4 4.8125 -6 5 C-6.66 4.67 -7.32 4.34 -8 4 C-2.25 0 -2.25 0 0 0 Z " fill="#27B6D3" transform="translate(158,117)"/>
<path d="M0 0 C0 2 0 2 -1.8125 4.125 C-4 6 -4 6 -7 6 C-5.81636731 2.44910192 -3.99368042 0 0 0 Z " fill="#27B9CF" transform="translate(301,269)"/>
<path d="M0 0 C0.99 0 1.98 0 3 0 C1.70700306 2.88437779 0.34058637 4.87219421 -2 7 C-1.125 1.125 -1.125 1.125 0 0 Z " fill="#23B7D1" transform="translate(133,172)"/>
<path d="M0 0 C0.66 0.33 1.32 0.66 2 1 C-1.32307692 4.93846154 -1.32307692 4.93846154 -4.75 5.25 C-5.4925 5.1675 -6.235 5.085 -7 5 C-4.88437775 2.67281553 -2.94982021 1.14186589 0 0 Z " fill="#27B7C8" transform="translate(165,112)"/>
</svg>
